<?xml version="1.0" encoding="utf-8"?>
<!-- Generator: Adobe Illustrator 28.1.0, SVG Export Plug-In . SVG Version: 6.00 Build 0)  -->
<svg version="1.1" id="Livello_1" xmlns="http://www.w3.org/2000/svg" xmlns:xlink="http://www.w3.org/1999/xlink" x="0px" y="0px"
	 viewBox="0 0 34.5 27.9" style="enable-background:new 0 0 34.5 27.9;" xml:space="preserve">
<style type="text/css">
	.st0{fill:#B28DC0;}
</style>
<g>
	<g>
		<rect x="15.2" y="8.2" class="st0" width="3.5" height="14.2"/>
		<path class="st0" d="M19.3,0.5v7.2c2,0,3.6-1.6,3.6-3.6C22.8,2.1,21.2,0.5,19.3,0.5z"/>
		<path class="st0" d="M19.3,8.3v3.5c2,0,3.6,1.6,3.6,3.6S21.3,19,19.3,19v3.5c3.9-0.1,7-3.2,7-7.1S23.1,8.3,19.3,8.3z"/>
		<path class="st0" d="M14.5,22.4V19c-2,0-3.6-1.6-3.6-3.6s1.6-3.6,3.6-3.6V8.3c-3.9,0.1-7,3.2-7,7.1S10.7,22.4,14.5,22.4z"/>
		<g>
			<path class="st0" d="M11.3,0.7c-3.7,0.1-6.7,3.2-6.8,7H8c0-1.9,1.5-3.4,3.3-3.6V0.7z"/>
			<path class="st0" d="M11.9,0.7v3.4c1.9,0.1,3.3,1.7,3.3,3.6h3.5C18.6,3.9,15.6,0.9,11.9,0.7z"/>
		</g>
	</g>
	<g>
		<path class="st0" d="M2.3,26H1.2l-0.2,0.5H0.4l1.1-2.4H2l1.1,2.4H2.5L2.3,26z M2.1,25.6l-0.4-0.9l-0.4,0.9H2.1z"/>
		<path class="st0" d="M4.9,26.5l-0.5-0.7h0H3.9v0.7H3.4v-2.4h1.1c0.7,0,1.1,0.3,1.1,0.9c0,0.4-0.2,0.6-0.5,0.8l0.5,0.8H4.9z
			 M4.4,24.6H3.9v0.9h0.5c0.3,0,0.5-0.2,0.5-0.4C4.9,24.7,4.7,24.6,4.4,24.6z"/>
		<path class="st0" d="M6,24.1h0.6v2.4H6V24.1z"/>
		<path class="st0" d="M8.7,26H7.6l-0.2,0.5H6.8l1.1-2.4h0.6l1.1,2.4H8.9L8.7,26z M8.5,25.6l-0.4-0.9l-0.4,0.9H8.5z"/>
		<path class="st0" d="M12,24.1v2.4h-0.5l-1.2-1.5v1.5H9.8v-2.4h0.5l1.2,1.5v-1.5H12z"/>
		<path class="st0" d="M14.9,24.1v2.4h-0.5l-1.2-1.5v1.5h-0.6v-2.4h0.5l1.2,1.5v-1.5H14.9z"/>
		<path class="st0" d="M17.1,26h-1.1l-0.2,0.5h-0.6l1.1-2.4h0.6l1.1,2.4h-0.6L17.1,26z M16.9,25.6l-0.4-0.9l-0.4,0.9H16.9z"/>
		<path class="st0" d="M21.4,25.9c0,0.4-0.3,0.7-1,0.7h-1.3v-2.4h1.2c0.6,0,0.9,0.3,0.9,0.6c0,0.2-0.1,0.4-0.3,0.5
			C21.2,25.4,21.4,25.6,21.4,25.9z M19.7,24.5v0.6h0.6c0.3,0,0.4-0.1,0.4-0.3s-0.2-0.3-0.4-0.3H19.7z M20.8,25.8
			c0-0.2-0.2-0.3-0.5-0.3h-0.7v0.6h0.7C20.7,26.1,20.8,26,20.8,25.8z"/>
		<path class="st0" d="M23.7,26.1v0.5h-1.9v-2.4h1.8v0.5h-1.3v0.5h1.1v0.4h-1.1v0.6H23.7z"/>
		<path class="st0" d="M24.2,24.1h0.6v2H26v0.5h-1.8V24.1z"/>
		<path class="st0" d="M26.1,25.3c0-0.7,0.6-1.3,1.3-1.3c0.8,0,1.3,0.5,1.3,1.3c0,0.7-0.6,1.3-1.3,1.3C26.7,26.6,26.1,26,26.1,25.3z
			 M28.2,25.3c0-0.5-0.3-0.8-0.8-0.8s-0.8,0.3-0.8,0.8s0.3,0.8,0.8,0.8S28.2,25.8,28.2,25.3z"/>
		<path class="st0" d="M29.7,24.6h-0.8v-0.5h2.1v0.5h-0.8v2h-0.6V24.6z"/>
		<path class="st0" d="M31.9,24.6h-0.8v-0.5h2.1v0.5h-0.8v2h-0.6V24.6z"/>
		<path class="st0" d="M33.6,24.1h0.6v2.4h-0.6V24.1z"/>
	</g>
</g>
</svg>
